<svg xmlns="http://www.w3.org/2000/svg" width="700" height="393.75" background-color="white"><rect width="700" height="393.75" fill="white"></rect><g transform="translate(50, 20)"><line x1="0" y1="276.9609557109557" x2="630" y2="50.56235431235429" stroke="#1f77b4"></line></g><g transform="translate(50, 20)"><circle class="circle" cx="367.5" cy="143.38578088578092" r="3" fill="#ff7f0e"></circle><circle class="circle" cx="262.5" cy="184.51486013986013" r="3" fill="#ff7f0e"></circle><circle class="circle" cx="525" cy="160.743006993007" r="3" fill="#ff7f0e"></circle><circle class="circle" cx="315" cy="114.33129370629369" r="3" fill="#ff7f0e"></circle><circle class="circle" cx="420" cy="132.4431818181818" r="3" fill="#ff7f0e"></circle><circle class="circle" cx="577.5" cy="70.9382284382284" r="3" fill="#ff7f0e"></circle><circle class="circle" cx="157.5" cy="173.57226107226106" r="3" fill="#ff7f0e"></circle><circle class="circle" cx="52.5" cy="286.01689976689977" r="3" fill="#ff7f0e"></circle><circle class="circle" cx="472.5" cy="37.73310023310025" r="3" fill="#ff7f0e"></circle><circle class="circle" cx="210" cy="264.8863636363636" r="3" fill="#ff7f0e"></circle><circle class="circle" cx="105" cy="232.43589743589743" r="3" fill="#ff7f0e"></circle></g><g transform="translate(50, 343.75)" fill="none" font-size="10" font-family="sans-serif" text-anchor="middle"><path class="domain" stroke="currentColor" d="M0.5,6V0.5H630.5V6"></path><g class="tick" opacity="1" transform="translate(0.5,0)"><line stroke="currentColor" y2="6"></line><text fill="currentColor" y="9" dy="0.71em">3</text></g><g class="tick" opacity="1" transform="translate(53,0)"><line stroke="currentColor" y2="6"></line><text fill="currentColor" y="9" dy="0.71em">4</text></g><g class="tick" opacity="1" transform="translate(105.5,0)"><line stroke="currentColor" y2="6"></line><text fill="currentColor" y="9" dy="0.71em">5</text></g><g class="tick" opacity="1" transform="translate(158,0)"><line stroke="currentColor" y2="6"></line><text fill="currentColor" y="9" dy="0.71em">6</text></g><g class="tick" opacity="1" transform="translate(210.5,0)"><line stroke="currentColor" y2="6"></line><text fill="currentColor" y="9" dy="0.71em">7</text></g><g class="tick" opacity="1" transform="translate(263,0)"><line stroke="currentColor" y2="6"></line><text fill="currentColor" y="9" dy="0.71em">8</text></g><g class="tick" opacity="1" transform="translate(315.5,0)"><line stroke="currentColor" y2="6"></line><text fill="currentColor" y="9" dy="0.71em">9</text></g><g class="tick" opacity="1" transform="translate(368,0)"><line stroke="currentColor" y2="6"></line><text fill="currentColor" y="9" dy="0.71em">10</text></g><g class="tick" opacity="1" transform="translate(420.5,0)"><line stroke="currentColor" y2="6"></line><text fill="currentColor" y="9" dy="0.71em">11</text></g><g class="tick" opacity="1" transform="translate(473,0)"><line stroke="currentColor" y2="6"></line><text fill="currentColor" y="9" dy="0.71em">12</text></g><g class="tick" opacity="1" transform="translate(525.5,0)"><line stroke="currentColor" y2="6"></line><text fill="currentColor" y="9" dy="0.71em">13</text></g><g class="tick" opacity="1" transform="translate(578,0)"><line stroke="currentColor" y2="6"></line><text fill="currentColor" y="9" dy="0.71em">14</text></g><g class="tick" opacity="1" transform="translate(630.5,0)"><line stroke="currentColor" y2="6"></line><text fill="currentColor" y="9" dy="0.71em">15</text></g></g><g><text transform="translate(365, 378.75)" style="text-anchor: middle;">X</text></g><g transform="translate(50, 20)" fill="none" font-size="10" font-family="sans-serif" text-anchor="end"><path class="domain" stroke="currentColor" d="M-6,324.25H0.5V0.5H-6"></path><g class="tick" opacity="1" transform="translate(0,296.3275058275058)"><line stroke="currentColor" x2="-6"></line><text fill="currentColor" x="-9" dy="0.32em">4</text></g><g class="tick" opacity="1" transform="translate(0,258.5944055944056)"><line stroke="currentColor" x2="-6"></line><text fill="currentColor" x="-9" dy="0.32em">5</text></g><g class="tick" opacity="1" transform="translate(0,220.86130536130537)"><line stroke="currentColor" x2="-6"></line><text fill="currentColor" x="-9" dy="0.32em">6</text></g><g class="tick" opacity="1" transform="translate(0,183.12820512820514)"><line stroke="currentColor" x2="-6"></line><text fill="currentColor" x="-9" dy="0.32em">7</text></g><g class="tick" opacity="1" transform="translate(0,145.39510489510488)"><line stroke="currentColor" x2="-6"></line><text fill="currentColor" x="-9" dy="0.32em">8</text></g><g class="tick" opacity="1" transform="translate(0,107.66200466200466)"><line stroke="currentColor" x2="-6"></line><text fill="currentColor" x="-9" dy="0.32em">9</text></g><g class="tick" opacity="1" transform="translate(0,69.92890442890442)"><line stroke="currentColor" x2="-6"></line><text fill="currentColor" x="-9" dy="0.32em">10</text></g><g class="tick" opacity="1" transform="translate(0,32.1958041958042)"><line stroke="currentColor" x2="-6"></line><text fill="currentColor" x="-9" dy="0.32em">11</text></g></g><g transform="translate(25, 181.875)"><text transform="rotate(-90)" style="text-anchor: middle;">Y</text></g></svg>